# xmcd
#
# Track frame offsets:
#	150
#	13935
#	27094
#	40985
#	53451
#	67591
#	68342
#	79818
#	96183
#	108151
#	120351
#	134837
#	146976
#	159448
#	174191
#	188858
#	202552
#
# Disc length: 2886 seconds
#
# Revision: 1
# Processed by: cddbd v1.5.2PL0 Copyright (c) Steve Scherf et al.
# Submitted via: audiograbber 1.83.01
#
DISCID=d20b4411
DTITLE=Calf Branders, The - It's Time to Party!?
DYEAR=2009
DGENRE=Country
TTITLE0=It's Time to Party
TTITLE1=Lucky Strike
TTITLE2=Headaches and Heartaches
TTITLE3=Country Wide Open
TTITLE4=Calf Brandin' Boogie
TTITLE5=Moo to You!
TTITLE6=Bull by the Horns
TTITLE7=Hey, Hey Bartender
TTITLE8=Calf Brander Twist
TTITLE9=My Baby Moved to Denver
TTITLE10=Cowboy Up!
TTITLE11=Rooty Toot Galoot
TTITLE12=Chew Tobacco Man
TTITLE13=Hallelujah!  I'm Ready
TTITLE14=Cowboy Country
TTITLE15=Si, Si Senorita!
TTITLE16=Calf Brander Blues
EXTD=
EXTT0=
EXTT1=
EXTT2=
EXTT3=
EXTT4=
EXTT5=
EXTT6=
EXTT7=
EXTT8=
EXTT9=
EXTT10=
EXTT11=
EXTT12=
EXTT13=
EXTT14=
EXTT15=
EXTT16=
PLAYORDER=
